<svg id="svg" version="1.1" xmlns="http://www.w3.org/2000/svg" xmlns:xlink="http://www.w3.org/1999/xlink" width="400" height="400" viewBox="0, 0, 400,400"><g id="svgg"><path id="path0" d="M194.159 101.597 C 178.624 104.226,166.434 115.194,162.082 130.459 C 160.896 134.619,160.269 160.965,161.204 167.376 C 162.382 175.455,165.613 182.038,171.936 189.243 C 175.880 193.736,176.688 195.630,176.688 200.375 C 176.688 208.052,173.334 212.032,164.011 215.416 C 141.550 223.570,125.671 242.435,121.210 266.266 C 120.690 269.042,120.558 271.963,120.543 281.002 L 120.525 292.276 121.659 294.113 C 122.364 295.254,123.490 296.380,124.629 297.085 L 126.464 298.219 199.019 298.317 C 280.160 298.426,273.716 298.642,276.641 295.717 C 279.287 293.071,280.159 283.504,278.896 270.986 C 276.348 245.744,259.409 223.992,235.614 215.408 C 226.122 211.984,222.868 208.145,222.868 200.375 C 222.868 195.538,223.931 193.091,227.885 188.827 C 232.629 183.710,235.781 178.046,237.602 171.366 L 238.585 167.760 238.599 152.202 C 238.614 135.293,238.508 134.100,236.467 128.210 C 230.231 110.213,211.790 98.613,194.159 101.597 " stroke="none" fill="#fcfcfc" fill-rule="evenodd"></path><path id="path1" d="M192.315 2.125 C 96.973 5.567,17.300 77.373,3.956 171.884 C -12.078 285.456,71.138 388.655,185.504 397.025 C 305.493 405.807,405.807 305.493,397.025 185.504 C 389.237 79.089,299.019 -1.728,192.315 2.125 M209.372 102.136 C 223.528 105.748,234.622 117.421,238.146 132.410 C 239.305 137.341,239.419 164.628,238.303 169.822 C 236.755 177.020,233.482 183.367,228.474 188.881 C 218.938 199.383,221.779 210.113,235.351 214.858 C 260.513 223.653,277.355 245.933,279.333 273.038 C 280.619 290.657,279.093 296.859,273.102 298.368 C 270.252 299.085,128.505 298.940,126.071 298.217 C 123.435 297.434,121.270 295.214,120.474 292.478 C 119.702 289.822,119.964 271.212,120.842 266.354 C 125.190 242.308,141.514 222.779,163.731 215.046 C 177.475 210.262,180.750 199.324,171.444 189.286 C 166.563 184.023,163.477 178.494,161.668 171.774 C 160.511 167.476,159.929 142.526,160.820 135.422 C 163.766 111.921,186.539 96.308,209.372 102.136 " stroke="none" fill="#4c3cf4" fill-rule="evenodd"></path><path id="path2" d="M172.060 112.746 L 169.634 115.276 172.165 112.851 C 173.557 111.516,174.695 110.378,174.695 110.320 C 174.695 110.044,174.314 110.396,172.060 112.746 M226.617 112.465 C 227.841 113.702,228.927 114.714,229.030 114.714 C 229.133 114.714,228.216 113.702,226.992 112.465 C 225.767 111.228,224.681 110.216,224.578 110.216 C 224.475 110.216,225.392 111.228,226.617 112.465 M164.199 178.213 C 164.199 178.615,165.314 180.694,165.530 180.694 C 165.633 180.694,165.439 180.145,165.098 179.475 C 164.402 178.107,164.199 177.822,164.199 178.213 M227.727 189.035 L 225.867 191.003 227.835 189.142 C 229.664 187.414,229.975 187.067,229.695 187.067 C 229.636 187.067,228.750 187.952,227.727 189.035 M176.677 200.375 C 176.680 201.406,176.753 201.783,176.839 201.213 C 176.925 200.643,176.923 199.800,176.834 199.339 C 176.745 198.878,176.674 199.344,176.677 200.375 M156.232 218.394 C 155.253 218.904,154.452 219.405,154.452 219.507 C 154.452 219.675,158.163 217.922,158.544 217.574 C 159.008 217.151,157.789 217.584,156.232 218.394 M139.449 230.834 L 135.895 234.489 139.550 230.935 C 142.945 227.634,143.376 227.179,143.104 227.179 C 143.049 227.179,141.404 228.824,139.449 230.834 M257.170 228.032 C 257.170 228.089,258.477 229.396,260.075 230.937 L 262.980 233.739 260.178 230.834 C 257.575 228.136,257.170 227.758,257.170 228.032 " stroke="none" fill="#7c74a4" fill-rule="evenodd"></path><path id="path3" d="M198.032 101.119 C 199.011 101.196,200.614 101.196,201.593 101.119 C 202.573 101.042,201.771 100.979,199.813 100.979 C 197.854 100.979,197.052 101.042,198.032 101.119 M171.872 112.559 L 169.634 114.902 171.978 112.664 C 174.154 110.586,174.492 110.216,174.215 110.216 C 174.157 110.216,173.103 111.270,171.872 112.559 M226.804 112.277 C 227.924 113.411,228.925 114.339,229.028 114.339 C 229.131 114.339,228.299 113.411,227.179 112.277 C 226.059 111.143,225.058 110.216,224.955 110.216 C 224.852 110.216,225.684 111.143,226.804 112.277 M160.620 151.265 C 160.620 159.306,160.670 162.543,160.731 158.457 C 160.791 154.371,160.791 147.792,160.730 143.836 C 160.670 139.881,160.620 143.224,160.620 151.265 M238.969 151.640 C 238.969 158.650,239.019 161.465,239.081 157.895 C 239.143 154.325,239.143 148.590,239.081 145.149 C 239.019 141.709,238.969 144.630,238.969 151.640 M227.929 189.128 C 227.018 190.056,226.357 190.815,226.461 190.815 C 226.564 190.815,227.393 190.056,228.304 189.128 C 229.214 188.201,229.875 187.441,229.772 187.441 C 229.669 187.441,228.839 188.201,227.929 189.128 M139.261 230.647 L 135.895 234.114 139.363 230.748 C 142.583 227.622,143.001 227.179,142.729 227.179 C 142.673 227.179,141.113 228.739,139.261 230.647 M259.981 230.553 C 261.621 232.202,263.047 233.552,263.150 233.552 C 263.253 233.552,261.996 232.202,260.356 230.553 C 258.716 228.903,257.290 227.554,257.187 227.554 C 257.084 227.554,258.341 228.903,259.981 230.553 M120.125 282.099 C 120.125 287.254,120.178 289.415,120.242 286.901 C 120.307 284.387,120.307 280.170,120.243 277.529 C 120.178 274.888,120.125 276.945,120.125 282.099 M279.446 282.849 C 279.447 287.179,279.501 288.899,279.568 286.671 C 279.634 284.444,279.634 280.901,279.567 278.799 C 279.500 276.697,279.446 278.519,279.446 282.849 M163.543 298.688 C 183.491 298.741,216.134 298.741,236.082 298.688 C 256.031 298.634,239.709 298.590,199.813 298.590 C 159.916 298.590,143.594 298.634,163.543 298.688 " stroke="none" fill="#4032a9" fill-rule="evenodd"></path><path id="path4" d="M170.947 188.683 C 170.947 188.748,171.495 189.296,172.165 189.902 L 173.383 191.003 172.282 189.784 C 171.256 188.649,170.947 188.394,170.947 188.683 " stroke="none" fill="#64649c" fill-rule="evenodd"></path></g></svg>